<svg width="700pt" height="700pt" version="1.1" viewBox="0 0 700 700" xmlns="http://www.w3.org/2000/svg"><g><path d="m406 266h-42v-42c0-7.6992-6.3008-14-14-14s-14 6.3008-14 14v42h-42c-7.6992 0-14 6.3008-14 14s6.3008 14 14 14h42v42c0 7.6992 6.3008 14 14 14s14-6.3008 14-14v-42h42c7.6992 0 14-6.3008 14-14s-6.3008-14-14-14z"/><path d="m350 126c-84.98 0-154 69.02-154 154s69.02 154 154 154 154-69.02 154-154-69.02-154-154-154zm0 280c-69.441 0-126-56.559-126-126s56.559-126 126-126 126 56.559 126 126-56.559 126-126 126z"/></g></svg>
