<?xml version="1.0" encoding="UTF-8"?>
<svg width="700pt" height="700pt" version="1.1" viewBox="0 0 700 700" xmlns="http://www.w3.org/2000/svg">
 <g>
  <path d="m350 0c-154 0-280 126-280 280s126 280 280 280 280-126 280-280-126-280-280-280zm0 490c-115.5 0-210-94.5-210-210s94.5-210 210-210 210 94.5 210 210-94.5 210-210 210z"/>
  <path d="m455 245h-70v-70c0-21-14-35-35-35s-35 14-35 35v70h-70c-21 0-35 14-35 35s14 35 35 35h70v70c0 21 14 35 35 35s35-14 35-35v-70h70c21 0 35-14 35-35s-14-35-35-35z"/>
 </g>
</svg>
